<svg xmlns="http://www.w3.org/2000/svg" viewBox="0 0 1000 560" role="img" aria-labelledby="title desc"><title id="title">Radio link budget and propagation paths</title><desc id="desc">Transmitter and receiver antennas are connected by a direct path and a reflected path, illustrating free-space loss, multipath, antenna gains, and receiver noise.</desc><rect width="1000" height="560" fill="#0b0b0b"/><g stroke="#333" stroke-width="1"><path d="M0 100H1000M0 200H1000M0 300H1000M0 400H1000M0 500H1000M100 0V560M300 0V560M500 0V560M700 0V560M900 0V560"/></g><path d="M115 382H885" stroke="#f2f2f2" stroke-width="2"/><path d="M160 352L160 225M160 225L148 255M160 225L172 255M840 352L840 225M840 225L828 255M840 225L852 255" fill="none" stroke="#f2f2f2" stroke-width="5" stroke-linecap="round"/><path d="M160 225L840 225" fill="none" stroke="#ef3434" stroke-width="4"/><path d="M160 225L510 374L840 225" fill="none" stroke="#f2f2f2" stroke-width="2" stroke-dasharray="10 8"/><path d="M510 225V375" stroke="#555" stroke-dasharray="6 7"/><circle cx="510" cy="225" r="7" fill="#ef3434"/><circle cx="510" cy="374" r="7" fill="#f2f2f2"/><g fill="#f2f2f2" font-family="Arial,sans-serif"><text x="45" y="53" font-size="24" font-weight="700">RF LINK / SIGNAL AND IMPAIRMENTS</text><text x="85" y="424" font-size="17">TRANSMITTER</text><text x="758" y="424" font-size="17">RECEIVER</text><text x="390" y="196" font-size="18" fill="#ef3434">DIRECT PATH d</text><text x="370" y="360" font-size="17">REFLECTED PATH</text><text x="94" y="467" font-size="16">Pₜ + Gₜ</text><text x="753" y="467" font-size="16">Gᵣ − N</text><text x="339" y="488" font-size="16">LFS = 20 log₁₀(4πd/λ)</text></g></svg>
